<svg width="600" height="200" viewBox="0 0 600 200" fill="none" xmlns="http://www.w3.org/2000/svg">
<g clip-path="url(#clip0_4_6)">
<path d="M63.4414 42.8H109.041L138.891 146H103.641L99.7414 126.2H73.0414L68.6914 146H34.9414L63.4414 42.8ZM96.1414 107.75L86.3914 62.6L76.1914 107.75H96.1414ZM172.974 147.2C164.574 147.2 158.024 144.5 153.324 139.1C148.624 133.7 146.274 126.35 146.274 117.05V70.85H178.074V115.7C178.074 118 178.674 119.8 179.874 121.1C181.174 122.3 182.824 122.9 184.824 122.9C186.824 122.9 188.874 122.3 190.974 121.1L192.624 141.95C190.424 143.65 187.524 144.95 183.924 145.85C180.424 146.75 176.774 147.2 172.974 147.2ZM162.174 59.6C157.474 59.6 153.474 58.15 150.174 55.25C146.974 52.25 145.374 48.6 145.374 44.3C145.374 40 147.074 36.4 150.474 33.5C153.874 30.6 157.774 29.15 162.174 29.15C166.774 29.15 170.724 30.65 174.024 33.65C177.424 36.65 179.124 40.2 179.124 44.3C179.124 48.7 177.424 52.35 174.024 55.25C170.624 58.15 166.674 59.6 162.174 59.6ZM201.359 71.9H231.509V87.2C234.909 81.3 238.759 76.95 243.059 74.15C247.459 71.25 252.659 69.8 258.659 69.8C264.559 69.8 269.659 71.3 273.959 74.3C278.359 77.2 281.659 81.15 283.859 86.15C290.259 75.25 299.559 69.8 311.759 69.8C317.559 69.8 322.609 71.35 326.909 74.45C331.309 77.55 334.709 82.05 337.109 87.95C339.509 93.75 340.709 100.6 340.709 108.5V146H309.059V108.5C309.059 103.4 308.159 99.55 306.359 96.95C304.659 94.35 302.259 93.05 299.159 93.05C295.759 93.05 292.809 94.5 290.309 97.4C287.909 100.3 286.709 103.8 286.709 107.9V146H255.359V108.5C255.359 103.4 254.459 99.55 252.659 96.95C250.959 94.35 248.509 93.05 245.309 93.05C241.909 93.05 239.009 94.5 236.609 97.4C234.209 100.3 233.009 103.8 233.009 107.9V146H201.359V71.9ZM381.714 147.2C373.314 147.2 366.764 144.5 362.064 139.1C357.364 133.7 355.014 126.35 355.014 117.05V70.85H386.814V115.7C386.814 118 387.414 119.8 388.614 121.1C389.914 122.3 391.564 122.9 393.564 122.9C395.564 122.9 397.614 122.3 399.714 121.1L401.364 141.95C399.164 143.65 396.264 144.95 392.664 145.85C389.164 146.75 385.514 147.2 381.714 147.2ZM370.914 59.6C366.214 59.6 362.214 58.15 358.914 55.25C355.714 52.25 354.114 48.6 354.114 44.3C354.114 40 355.814 36.4 359.214 33.5C362.614 30.6 366.514 29.15 370.914 29.15C375.514 29.15 379.464 30.65 382.764 33.65C386.164 36.65 387.864 40.2 387.864 44.3C387.864 48.7 386.164 52.35 382.764 55.25C379.364 58.15 375.414 59.6 370.914 59.6ZM414.628 89.45H405.178V70.85H414.628V64.55C414.628 53.45 417.278 45.05 422.578 39.35C427.978 33.65 435.478 30.8 445.078 30.8C452.778 30.8 459.928 32.75 466.528 36.65L465.478 56.9C459.678 54.6 454.828 53.45 450.928 53.45C447.928 53.45 445.628 54.2 444.028 55.7C442.428 57.1 441.628 59.15 441.628 61.85C441.628 64.45 442.478 67.45 444.178 70.85H465.178V89.45H446.278V146H414.628V89.45ZM514.013 180.35C508.513 180.35 503.263 179.8 498.263 178.7L500.663 156.5C504.563 157.1 508.163 157.4 511.463 157.4C517.363 157.4 521.863 155.6 524.963 152C528.063 148.5 529.663 141.85 529.763 132.05C524.563 142.05 516.213 147.05 504.713 147.05C495.013 147.05 487.413 143.65 481.913 136.85C476.513 129.95 473.813 120.45 473.813 108.35V70.85H505.313V113C505.313 116.4 506.263 119.25 508.163 121.55C510.063 123.75 512.663 124.85 515.963 124.85C519.363 124.85 522.113 123.4 524.213 120.5C526.413 117.6 527.513 113.8 527.513 109.1V70.85H559.163V126.95C559.163 144.35 555.263 157.6 547.463 166.7C539.663 175.8 528.513 180.35 514.013 180.35Z" fill="white"/>
</g>
<defs>
<clipPath id="clip0_4_6">
<rect width="600" height="200" fill="white"/>
</clipPath>
</defs>
</svg>
